<svg xmlns="http://www.w3.org/2000/svg" width="220" height="220" viewBox="0 0 220 220">
  <defs>
    <g id="sprig">
      <path d="M0 0 C 16 -4 30 -16 36 -34" fill="none" stroke="#9aa07a" stroke-width="1.1" stroke-linecap="round"/>
      <g fill="#aab388" fill-opacity="0.85">
        <path d="M6 -6 q 9 -10 1 -16 q -8 4 -1 16 z"/>
        <path d="M15 -14 q 9 -10 1 -16 q -8 4 -1 16 z"/>
        <path d="M24 -23 q 9 -10 1 -16 q -8 4 -1 16 z"/>
        <path d="M3 -3 q -10 -6 -16 1 q 6 7 16 -1 z"/>
        <path d="M12 -11 q -10 -6 -16 1 q 6 7 16 -1 z"/>
        <path d="M21 -20 q -10 -6 -16 1 q 6 7 16 -1 z"/>
      </g>
    </g>
  </defs>
  <use href="#sprig" transform="translate(40 70) rotate(20) scale(0.9)"/>
  <use href="#sprig" transform="translate(150 50) rotate(120) scale(0.8)"/>
  <use href="#sprig" transform="translate(180 160) rotate(220) scale(0.95)"/>
  <use href="#sprig" transform="translate(70 180) rotate(300) scale(0.85)"/>
  <use href="#sprig" transform="translate(110 110) rotate(70) scale(0.7)"/>
</svg>
